#!OML:ASF H:\BabyWalks\Project 1\Capture day 1\Session 1\baby.ASF
:FULLY-SPECIFIED
:DEGREES
667
root 28.4981 17.8003 -2.00084 -175.416 50.6605 -180.945
lowerback 18.8273 -3.62735 0.61869
upperback 5.81385 -3.90629 2.32649
thorax -4.13054 -1.68218 2.95713
lowerneck -2.92697 -2.26775 3.17547
upperneck -3.02946 -3.1035 -2.31431
head -0.53361 -1.55999 -1.25192
rclavicle 4.77083e-015 1.59028e-014
rhumerus -47.6826 8.26384 -82.1552
rradius 48.5742
rwrist -2.92332
rhand -10.9975 -17.0503
rfingers 7.12502
rthumb 15.0229 -46.4853
lclavicle 4.77083e-015 1.59028e-014
lhumerus -23.9517 -12.8196 83.8457
lradius 49.3199
lwrist -3.93447
lhand 0.194965 7.68031
lfingers 7.12502
lthumb 25.7771 35.9541
rfemur -18.5091 11.1225 22.6484
rtibia 30.1421
rfoot -13.9063 -7.44878
rtoes 4.00248
lfemur -13.3816 4.53891 -13.9279
ltibia 59.8174
lfoot -12.522 -16.1626
ltoes -11.0714
668
root 28.5465 17.8007 -2.03464 -175.369 50.4866 -180.688
lowerback 18.8503 -3.57841 0.830337
upperback 5.86372 -3.79177 2.36782
thorax -4.10578 -1.622 2.85641
lowerneck -2.86215 -2.37333 3.10207
upperneck -3.00725 -3.24111 -2.28406
head -0.539643 -1.62818 -1.22919
rclavicle -2.70347e-014 5.96354e-015
rhumerus -47.6557 8.03773 -81.9649
rradius 48.0774
rwrist -2.52302
rhand -10.9795 -17.1476
rfingers 7.12502
rthumb 15.0402 -46.5813
lclavicle -2.70347e-014 5.96354e-015
lhumerus -24.2649 -12.292 83.7104
lradius 49.2005
lwrist -3.90192
lhand -0.0443391 7.80782
lfingers 7.12502
lthumb 25.5479 36.1147
rfemur -17.9434 11.067 22.9184
rtibia 29.8368
rfoot -14.0182 -7.55387
rtoes 4.05578
lfemur -14.4339 4.83612 -13.8222
ltibia 60.0164
lfoot -13.4686 -15.352
ltoes -11.5599
669
root 28.5947 17.8004 -2.06887 -175.31 50.3323 -180.413
lowerback 18.8691 -3.51935 1.04807
upperback 5.9078 -3.66381 2.40772
thorax -4.08538 -1.55532 2.74776
lowerneck -2.80405 -2.47816 3.03589
upperneck -2.95835 -3.37833 -2.26069
head -0.536421 -1.69635 -1.21009
rclavicle -3.71727e-014 -3.49861e-014
rhumerus -47.6284 7.82374 -81.7856
rradius 47.5907
rwrist -2.12376
rhand -10.932 -17.2452
rfingers 7.12502
rthumb 15.086 -46.6755
lclavicle -3.71727e-014 -3.49861e-014
lhumerus -24.5896 -11.7921 83.5623
lradius 49.095
lwrist -3.847
lhand -0.268862 7.93644
lfingers 7.12502
lthumb 25.3328 36.2739
rfemur -17.3771 11.0182 23.2015
rtibia 29.5305
rfoot -14.1323 -7.65081
rtoes 4.1305
lfemur -15.4698 5.09752 -13.7217
ltibia 60.0687
lfoot -14.3317 -14.5478
ltoes -11.8565
670
root 28.6425 17.7996 -2.10369 -175.249 50.2006 -180.135
lowerback 18.8724 -3.45152 1.25994
upperback 5.95471 -3.52657 2.4441
thorax -4.05317 -1.48419 2.63556
lowerneck -2.75768 -2.579 2.97749
upperneck -2.89402 -3.51075 -2.24039
head -0.526449 -1.76228 -1.19354
rclavicle -1.37161e-014 -3.61788e-014
rhumerus -47.5842 7.62233 -81.6156
rradius 47.1196
rwrist -1.72065
rhand -10.8527 -17.3369
rfingers 7.12502
rthumb 15.1624 -46.7614
lclavicle -1.37161e-014 -3.61788e-014
lhumerus -24.9143 -11.3129 83.3964
lradius 49.0031
lwrist -3.77627
lhand -0.482026 8.05279
lfingers 7.12502
lthumb 25.1286 36.4191
rfemur -16.8203 10.9718 23.4868
rtibia 29.2398
rfoot -14.2527 -7.7293
rtoes 4.22533
lfemur -16.4869 5.32207 -13.6356
ltibia 59.9773
lfoot -15.1147 -13.7508
ltoes -12.043
671
root 28.69 17.7983 -2.13915 -175.191 50.096 -179.862
lowerback 18.8676 -3.37206 1.46119
upperback 6.00055 -3.3774 2.4758
thorax -4.01703 -1.40737 2.52134
lowerneck -2.71798 -2.67815 2.92293
upperneck -2.8176 -3.6412 -2.22125
head -0.511587 -1.82733 -1.1782
rclavicle -9.42239e-014 3.49861e-014
rhumerus -47.5334 7.43259 -81.4553
rradius 46.6733
rwrist -1.3185
rhand -10.7514 -17.4203
rfingers 7.12502
rthumb 15.26 -46.8374
lclavicle -9.42239e-014 3.49861e-014
lhumerus -25.2474 -10.8545 83.2164
lradius 48.9321
lwrist -3.69937
lhand -0.672218 8.14831
lfingers 7.12502
lthumb 24.9464 36.54
rfemur -16.2667 10.932 23.7682
rtibia 28.9523
rfoot -14.3712 -7.78924
rtoes 4.33459
lfemur -17.4754 5.5119 -13.5655
ltibia 59.7348
lfoot -15.8202 -12.9684
ltoes -12.1235
672
root 28.7371 17.7967 -2.17552 -175.146 50.0188 -179.606
lowerback 18.8571 -3.28394 1.64337
upperback 6.04345 -3.22209 2.49983
thorax -3.9797 -1.32781 2.40822
lowerneck -2.68653 -2.77265 2.87245
upperneck -2.72823 -3.76569 -2.20041
head -0.491164 -1.88952 -1.16326
rclavicle -4.65156e-014 4.49253e-014
rhumerus -47.4787 7.26187 -81.3091
rradius 46.259
rwrist -0.917183
rhand -10.6394 -17.4936
rfingers 7.12502
rthumb 15.3679 -46.9025
lclavicle -4.65156e-014 4.49253e-014
lhumerus -25.5976 -10.4204 83.0204
lradius 48.8858
lwrist -3.60817
lhand -0.839089 8.2328
lfingers 7.12502
lthumb 24.7864 36.6466
rfemur -15.7183 10.8904 24.0351
rtibia 28.6709
rfoot -14.4891 -7.82233
rtoes 4.46395
lfemur -18.4312 5.66536 -13.5201
ltibia 59.3394
lfoot -16.4542 -12.2116
ltoes -12.1624
673
root 28.784 17.7948 -2.21285 -175.12 49.9718 -179.374
lowerback 18.846 -3.1853 1.80607
upperback 6.08276 -3.05828 2.51356
thorax -3.9447 -1.24436 2.29345
lowerneck -2.65052 -2.86641 2.82275
upperneck -2.63825 -3.88902 -2.16968
head -0.471004 -1.95118 -1.14532
rclavicle 1.82882e-014 -3.53837e-014
rhumerus -47.4264 7.101 -81.1754
rradius 45.8855
rwrist -0.521301
rhand -10.5222 -17.5543
rfingers 7.12502
rthumb 15.4808 -46.9544
lclavicle 1.82882e-014 -3.53837e-014
lhumerus -25.9754 -10.0195 82.8111
lradius 48.8775
lwrist -3.50341
lhand -0.989972 8.28299
lfingers 7.12502
lthumb 24.6418 36.7166
rfemur -15.1722 10.8488 24.2827
rtibia 28.3964
rfoot -14.6075 -7.82379
rtoes 4.60539
lfemur -19.3446 5.78046 -13.4983
ltibia 58.7917
lfoot -17.0117 -11.49
ltoes -12.1616
674
root 28.8305 17.7928 -2.25117 -175.115 49.9562 -179.169
lowerback 18.8362 -3.07552 1.94491
upperback 6.11731 -2.8859 2.51774
thorax -3.91403 -1.1571 2.18039
lowerneck -2.60424 -2.96098 2.77636
upperneck -2.55929 -4.01327 -2.13451
head -0.455848 -2.01329 -1.12633
rclavicle 9.93923e-016 -1.74931e-014
rhumerus -47.3813 6.95927 -81.0559
rradius 45.5614
rwrist -0.146774
rhand -10.3993 -17.6036
rfingers 7.12502
rthumb 15.5991 -46.9946
lclavicle 9.93923e-016 -1.74931e-014
lhumerus -26.384 -9.65931 82.5946
lradius 48.9094
lwrist -3.37179
lhand -1.12369 8.34611
lfingers 7.12502
lthumb 24.5136 36.7971
rfemur -14.632 10.8011 24.5067
rtibia 28.1327
rfoot -14.731 -7.79011
rtoes 4.78203
lfemur -20.2136 5.85257 -13.4998
ltibia 58.0959
lfoot -17.4942 -10.8134
ltoes -12.1559
675
root 28.8768 17.7907 -2.2906 -175.131 49.9724 -178.99
lowerback 18.8237 -2.95407 2.06026
upperback 6.15052 -2.70402 2.51397
thorax -3.88193 -1.06549 2.07007
lowerneck -2.55108 -3.05844 2.72371
upperneck -2.49405 -4.14098 -2.08941
head -0.445677 -2.07703 -1.10296
rclavicle -3.83654e-014 -7.95139e-015
rhumerus -47.3418 6.83864 -80.9504
rradius 45.2923
rwrist 0.195159
rhand -10.2932 -17.6474
rfingers 7.12502
rthumb 15.7013 -47.0304
lclavicle -3.83654e-014 -7.95139e-015
lhumerus -26.8214 -9.34674 82.3751
lradius 48.9864
lwrist -3.21081
lhand -1.24543 8.4338
lfingers 7.12502
lthumb 24.3969 36.9006
rfemur -14.0946 10.7469 24.7081
rtibia 27.8769
rfoot -14.8618 -7.72456
rtoes 4.98758
lfemur -21.0323 5.87944 -13.5179
ltibia 57.2557
lfoot -17.9107 -10.1807
ltoes -12.1648
676
root 28.9229 17.788 -2.33107 -175.167 50.0151 -178.836
lowerback 18.8096 -2.82351 2.14967
upperback 6.18155 -2.51613 2.50514
thorax -3.84965 -0.971283 1.96779
lowerneck -2.4892 -3.15619 2.67032
upperneck -2.44434 -4.26888 -2.04108
head -0.44151 -2.1408 -1.07817
rclavicle 1.33186e-014 2.46493e-014
rhumerus -47.3107 6.74244 -80.8568
rradius 45.0836
rwrist 0.495863
rhand -10.1869 -17.6816
rfingers 7.12502
rthumb 15.8037 -47.0566
lclavicle 1.33186e-014 2.46493e-014
lhumerus -27.293 -9.07696 82.1563
lradius 49.1036
lwrist -3.01918
lhand -1.35848 8.52939
lfingers 7.12502
lthumb 24.2886 37.0107
rfemur -13.5599 10.6854 24.8874
rtibia 27.6284
rfoot -15.0079 -7.63108
rtoes 5.20208
lfemur -21.8017 5.85172 -13.5464
ltibia 56.2798
lfoot -18.2633 -9.58602
ltoes -12.2106
677
root 28.9689 17.7853 -2.37268 -175.212 50.0881 -178.694
lowerback 18.7996 -2.68304 2.22442
upperback 6.20641 -2.31889 2.49234
thorax -3.8251 -0.87289 1.86801
lowerneck -2.42035 -3.25387 2.61222
upperneck -2.40392 -4.39647 -1.98865
head -0.440993 -2.20433 -1.05109
rclavicle 4.77083e-014 -2.42517e-014
rhumerus -47.2976 6.677 -80.7784
rradius 44.9395
rwrist 0.741054
rhand -10.0911 -17.71
rfingers 7.12502
rthumb 15.8959 -47.0776
lclavicle 4.77083e-014 -2.42517e-014
lhumerus -27.8031 -8.86079 81.9419
lradius 49.2664
lwrist -2.79232
lhand -1.46277 8.64952
lfingers 7.12502
lthumb 24.1886 37.1442
rfemur -13.0244 10.6181 25.0536
rtibia 27.38
rfoot -15.166 -7.50958
rtoes 5.39663
lfemur -22.5179 5.77072 -13.5711
ltibia 55.1729
lfoot -18.5536 -9.02749
ltoes -12.2267
678
root 29.015 17.7826 -2.4155 -175.268 50.1856 -178.571
lowerback 18.7746 -2.53573 2.27654
upperback 6.23582 -2.11811 2.47685
thorax -3.78643 -0.772926 1.77684
lowerneck -2.35451 -3.34943 2.54741
upperneck -2.38029 -4.52104 -1.92984
head -0.444586 -2.26626 -1.02078
rclavicle 7.81224e-014 4.77083e-015
rhumerus -47.2828 6.64529 -80.713
rradius 44.8582
rwrist 0.924348
rhand -10.013 -17.7313
rfingers 7.12502
rthumb 15.9711 -47.0929
lclavicle 7.81224e-014 4.77083e-015
lhumerus -28.3231 -8.67966 81.7294
lradius 49.448
lwrist -2.54251
lhand -1.55328 8.774
lfingers 7.12502
lthumb 24.1018 37.2802
rfemur -12.4876 10.5426 25.1997
rtibia 27.1231
rfoot -15.332 -7.36642
rtoes 5.56326
lfemur -23.1836 5.62628 -13.5939
ltibia 53.9436
lfoot -18.7849 -8.48637
ltoes -12.2586
